<svg aria-hidden="true" style="position: absolute; width: 0; height: 0; overflow: hidden;" version="1.1"
  xmlns="http://www.w3.org/2000/svg"
  xmlns:xlink="http://www.w3.org/1999/xlink">
  <defs>
    <symbol id="icon-clock" viewBox="0 0 32 32">
      <path d="M16 0c-8.837 0-16 7.163-16 16s7.163 16 16 16c8.837 0 16-7.163 16-16-0.011-8.832-7.168-15.989-16-16zM16.686 30.593v-2.814c0-0.379-0.307-0.686-0.686-0.686s-0.686 0.307-0.686 0.686v2.814c-7.526-0.359-13.547-6.38-13.906-13.907h2.814c0.379 0 0.686-0.307 0.686-0.686s-0.307-0.686-0.686-0.686h-2.814c0.359-7.526 6.38-13.547 13.906-13.906v2.814c0 0.379 0.307 0.686 0.686 0.686s0.686-0.307 0.686-0.686v-2.814c7.527 0.359 13.547 6.38 13.907 13.906h-2.814c-0.379 0-0.686 0.307-0.686 0.686s0.307 0.686 0.686 0.686h2.821c-0.36 7.529-6.384 13.551-13.913 13.907z"></path>
      <path d="M23.242 22.383l-6.555-6.665v-6.926c0-0.379-0.307-0.686-0.686-0.686s-0.686 0.307-0.686 0.686v7.207c0.001 0.18 0.072 0.353 0.199 0.48l6.747 6.864c0.265 0.271 0.7 0.276 0.971 0.010s0.276-0.7 0.010-0.971z"></path>
    </symbol>
    <symbol id="icon-left-arrow" viewBox="0 0 32 32">
      <path fill="#fff" style="fill: var(--color1, #fff)" d="M10.19 15.809l12.645-13.299c0.311-0.327 0.311-0.852 0-1.179s-0.81-0.327-1.121 0l-13.209 13.892c-0.311 0.327-0.311 0.852 0 1.179l13.209 13.886c0.153 0.16 0.358 0.247 0.557 0.247s0.405-0.080 0.557-0.247c0.311-0.327 0.311-0.852 0-1.179l-12.639-13.299z"></path>
    </symbol>
    <symbol id="icon-location" viewBox="0 0 32 32">
      <path d="M15.978 0c-6.467 0-11.728 5.261-11.728 11.728 0 2.971 1.872 7.168 5.564 12.475 2.698 3.88 5.353 6.882 5.464 7.008l0.7 0.789 0.7-0.789c0.112-0.126 2.766-3.128 5.464-7.008 3.692-5.307 5.564-9.505 5.564-12.475 0-6.467-5.261-11.728-11.728-11.728zM20.616 23.12c-1.824 2.624-3.668 4.882-4.639 6.034-0.969-1.149-2.805-3.399-4.628-6.019-3.421-4.917-5.229-8.862-5.229-11.407 0-5.435 4.422-9.857 9.857-9.857s9.857 4.422 9.857 9.857c0 2.542-1.804 6.481-5.218 11.392z"></path>
      <path d="M15.978 4.335c-3.817 0-6.922 3.105-6.922 6.922s3.105 6.922 6.922 6.922c3.817 0 6.922-3.105 6.922-6.922s-3.105-6.922-6.922-6.922zM15.978 16.307c-2.785 0-5.051-2.266-5.051-5.051s2.266-5.051 5.051-5.051c2.785 0 5.051 2.266 5.051 5.051s-2.266 5.051-5.051 5.051z"></path>
    </symbol>
    <symbol id="icon-mes" viewBox="0 0 32 32">
      <path d="M31.99 5.281c-0.004-0.036-0.011-0.072-0.021-0.107s-0.025-0.068-0.043-0.099c-0.008-0.015-0.010-0.033-0.020-0.047s-0.023-0.020-0.033-0.033c-0.024-0.028-0.050-0.054-0.079-0.076-0.025-0.020-0.053-0.038-0.081-0.053-0.030-0.015-0.061-0.028-0.093-0.037-0.035-0.010-0.071-0.017-0.107-0.021-0.016 0-0.030-0.009-0.046-0.009h-30.932c-0.016 0.002-0.032 0.006-0.048 0.010-0.035 0.003-0.069 0.010-0.102 0.021s-0.065 0.022-0.096 0.037c-0.028 0.015-0.055 0.033-0.079 0.053-0.029 0.023-0.056 0.048-0.080 0.077-0.010 0.012-0.024 0.019-0.033 0.033s-0.012 0.032-0.020 0.047c-0.018 0.031-0.032 0.065-0.043 0.099s-0.018 0.070-0.021 0.107c0 0.018-0.010 0.033-0.010 0.053v21.332c0 0.295 0.239 0.533 0.533 0.533h30.933c0.294 0 0.533-0.239 0.533-0.533v-21.333c0-0.018-0.008-0.034-0.010-0.053zM29.754 5.868l-13.754 9.485-13.754-9.485h27.507zM30.933 26.134h-29.867v-19.784l14.63 10.090c0.182 0.126 0.424 0.126 0.606 0l14.63-10.090v19.784z"></path>
    </symbol>
    <symbol id="icon-phone" viewBox="0 0 32 32">
      <path d="M22.076 1.070h-12.555c-1.046 0-1.902 0.906-1.902 2.015v25.805c0 1.109 0.856 2.016 1.902 2.016h12.555c1.046 0 1.902-0.905 1.902-2.015v-25.806c0-1.109-0.856-2.015-1.902-2.015zM13.79 2.523h4.017c0.127 0 0.23 0.109 0.23 0.245s-0.103 0.244-0.23 0.244h-4.017c-0.127 0-0.23-0.109-0.23-0.244s0.103-0.245 0.23-0.245zM15.799 29.899c-0.525 0-0.951-0.451-0.951-1.008s0.426-1.008 0.951-1.008 0.951 0.45 0.951 1.008c0 0.557-0.426 1.008-0.951 1.008zM22.655 27.177h-13.712v-22.911h13.712v22.911z"></path>
    </symbol>
    <symbol id="icon-right-arrow" viewBox="0 0 32 32">
      <path fill="#fff" style="fill: var(--color1, #fff)" d="M21.993 15.811l-12.645 13.299c-0.311 0.327-0.311 0.852 0 1.179s0.81 0.327 1.121 0l13.209-13.892c0.311-0.327 0.311-0.852 0-1.179l-13.209-13.886c-0.153-0.16-0.358-0.247-0.557-0.247s-0.405 0.080-0.557 0.247c-0.311 0.327-0.311 0.852 0 1.179l12.639 13.299z"></path>
    </symbol>
    <symbol id="icon-sity" viewBox="0 0 32 32">
      <path d="M29.879 30.687h-0.89v-27.936c0-0.295-0.239-0.534-0.534-0.534h-9.964c-0.295 0-0.534 0.239-0.534 0.534v2.313h-1.068v-2.313c0-0.295-0.239-0.534-0.534-0.534h-2.313v-1.601c0-0.295-0.239-0.534-0.534-0.534s-0.534 0.239-0.534 0.534v1.601h-2.313c-0.295 0-0.534 0.239-0.534 0.534v2.313h-1.601c-0.295 0-0.534 0.239-0.534 0.534v4.448h-4.448c-0.295 0-0.534 0.239-0.534 0.534v20.107h-0.89c-0.295 0-0.534 0.239-0.534 0.534s0.239 0.534 0.534 0.534h27.758c0.295 0 0.534-0.239 0.534-0.534s-0.239-0.534-0.534-0.534zM11.196 3.285h4.626v1.779h-4.626v-1.779zM9.416 30.687h-0.356v-0.89c0-0.295-0.239-0.534-0.534-0.534s-0.534 0.239-0.534 0.534v0.89h-0.356v-1.779h1.779v1.779zM12.975 16.986v13.701h-2.491v-2.313c0-0.295-0.239-0.534-0.534-0.534h-2.847c-0.295 0-0.534 0.239-0.534 0.534v2.313h-2.491v-19.573h8.897v5.872zM13.509 10.046h-4.448v-3.915h8.897v10.32h-3.915v-1.779h1.601c0.295 0 0.534-0.239 0.534-0.534s-0.239-0.534-0.534-0.534h-1.601v-1.779h1.601c0.295 0 0.534-0.239 0.534-0.534s-0.239-0.534-0.534-0.534h-1.601v-0.178c0-0.295-0.239-0.534-0.534-0.534zM22.939 30.687h-8.897v-13.167h8.897v13.167zM27.922 30.687h-3.915v-14.413c0-0.295-0.239-0.534-0.534-0.534s-0.534 0.239-0.534 0.534v0.178h-1.068v-0.178c0-0.295-0.239-0.534-0.534-0.534s-0.534 0.239-0.534 0.534v0.178h-1.779v-13.167h8.897v27.402h-0z"></path>
      <path d="M16.356 29.619c0.295 0 0.534-0.239 0.534-0.534v-9.964c0-0.295-0.239-0.534-0.534-0.534s-0.534 0.239-0.534 0.534v9.964c0 0.295 0.239 0.534 0.534 0.534z"></path>
      <path d="M18.491 29.619c0.295 0 0.534-0.239 0.534-0.534v-9.964c0-0.295-0.239-0.534-0.534-0.534s-0.534 0.239-0.534 0.534v9.964c-0 0.295 0.239 0.534 0.534 0.534z"></path>
      <path d="M20.626 29.619c0.295 0 0.534-0.239 0.534-0.534v-9.964c0-0.295-0.239-0.534-0.534-0.534s-0.534 0.239-0.534 0.534v9.964c0 0.295 0.239 0.534 0.534 0.534z"></path>
      <path d="M21.338 6.843c0.295 0 0.534-0.239 0.534-0.534v-0.712c0-0.295-0.239-0.534-0.534-0.534s-0.534 0.239-0.534 0.534v0.712c0 0.295 0.239 0.534 0.534 0.534z"></path>
      <path d="M23.473 6.843c0.295 0 0.534-0.239 0.534-0.534v-0.712c0-0.295-0.239-0.534-0.534-0.534s-0.534 0.239-0.534 0.534v0.712c0 0.295 0.239 0.534 0.534 0.534z"></path>
      <path d="M25.609 6.843c0.295 0 0.534-0.239 0.534-0.534v-0.712c0-0.295-0.239-0.534-0.534-0.534s-0.534 0.239-0.534 0.534v0.712c0 0.295 0.239 0.534 0.534 0.534z"></path>
      <path d="M21.338 10.402c0.295 0 0.534-0.239 0.534-0.534v-0.712c0-0.295-0.239-0.534-0.534-0.534s-0.534 0.239-0.534 0.534v0.712c0 0.295 0.239 0.534 0.534 0.534z"></path>
      <path d="M23.473 10.402c0.295 0 0.534-0.239 0.534-0.534v-0.712c0-0.295-0.239-0.534-0.534-0.534s-0.534 0.239-0.534 0.534v0.712c0 0.295 0.239 0.534 0.534 0.534z"></path>
      <path d="M25.609 10.402c0.295 0 0.534-0.239 0.534-0.534v-0.712c0-0.295-0.239-0.534-0.534-0.534s-0.534 0.239-0.534 0.534v0.712c0 0.295 0.239 0.534 0.534 0.534z"></path>
      <path d="M21.338 13.961c0.295 0 0.534-0.239 0.534-0.534v-0.712c0-0.295-0.239-0.534-0.534-0.534s-0.534 0.239-0.534 0.534v0.712c0 0.295 0.239 0.534 0.534 0.534z"></path>
      <path d="M23.473 13.961c0.295 0 0.534-0.239 0.534-0.534v-0.712c0-0.295-0.239-0.534-0.534-0.534s-0.534 0.239-0.534 0.534v0.712c0 0.295 0.239 0.534 0.534 0.534z"></path>
      <path d="M25.609 13.961c0.295 0 0.534-0.239 0.534-0.534v-0.712c0-0.295-0.239-0.534-0.534-0.534s-0.534 0.239-0.534 0.534v0.712c0 0.295 0.239 0.534 0.534 0.534z"></path>
      <path d="M6.391 15.384c0.295 0 0.534-0.239 0.534-0.534v-0.712c0-0.295-0.239-0.534-0.534-0.534s-0.534 0.239-0.534 0.534v0.712c0 0.295 0.239 0.534 0.534 0.534z"></path>
      <path d="M8.527 15.384c0.295 0 0.534-0.239 0.534-0.534v-0.712c0-0.295-0.239-0.534-0.534-0.534s-0.534 0.239-0.534 0.534v0.712c0 0.295 0.239 0.534 0.534 0.534z"></path>
      <path d="M10.662 15.384c0.295 0 0.534-0.239 0.534-0.534v-0.712c0-0.295-0.239-0.534-0.534-0.534s-0.534 0.239-0.534 0.534v0.712c0 0.295 0.239 0.534 0.534 0.534z"></path>
      <path d="M6.391 18.943c0.295 0 0.534-0.239 0.534-0.534v-0.712c0-0.295-0.239-0.534-0.534-0.534s-0.534 0.239-0.534 0.534v0.712c0 0.295 0.239 0.534 0.534 0.534z"></path>
      <path d="M8.527 18.943c0.295 0 0.534-0.239 0.534-0.534v-0.712c0-0.295-0.239-0.534-0.534-0.534s-0.534 0.239-0.534 0.534v0.712c0 0.295 0.239 0.534 0.534 0.534z"></path>
      <path d="M10.662 18.943c0.295 0 0.534-0.239 0.534-0.534v-0.712c0-0.295-0.239-0.534-0.534-0.534s-0.534 0.239-0.534 0.534v0.712c0 0.295 0.239 0.534 0.534 0.534z"></path>
      <path d="M6.391 22.502c0.295 0 0.534-0.239 0.534-0.534v-0.712c0-0.295-0.239-0.534-0.534-0.534s-0.534 0.239-0.534 0.534v0.712c0 0.295 0.239 0.534 0.534 0.534z"></path>
      <path d="M8.527 22.502c0.295 0 0.534-0.239 0.534-0.534v-0.712c0-0.295-0.239-0.534-0.534-0.534s-0.534 0.239-0.534 0.534v0.712c0 0.295 0.239 0.534 0.534 0.534z"></path>
      <path d="M10.662 22.502c0.295 0 0.534-0.239 0.534-0.534v-0.712c0-0.295-0.239-0.534-0.534-0.534s-0.534 0.239-0.534 0.534v0.712c0 0.295 0.239 0.534 0.534 0.534z"></path>
      <path d="M6.391 26.061c0.295 0 0.534-0.239 0.534-0.534v-0.712c0-0.295-0.239-0.534-0.534-0.534s-0.534 0.239-0.534 0.534v0.712c0 0.295 0.239 0.534 0.534 0.534z"></path>
      <path d="M8.527 26.061c0.295 0 0.534-0.239 0.534-0.534v-0.712c0-0.295-0.239-0.534-0.534-0.534s-0.534 0.239-0.534 0.534v0.712c0 0.295 0.239 0.534 0.534 0.534z"></path>
      <path d="M10.662 26.061c0.295 0 0.534-0.239 0.534-0.534v-0.712c0-0.295-0.239-0.534-0.534-0.534s-0.534 0.239-0.534 0.534v0.712c0 0.295 0.239 0.534 0.534 0.534z"></path>
      <path d="M25.609 17.52c0.295 0 0.534-0.239 0.534-0.534v-0.712c0-0.295-0.239-0.534-0.534-0.534s-0.534 0.239-0.534 0.534v0.712c0 0.295 0.239 0.534 0.534 0.534z"></path>
      <path d="M25.609 21.078c0.295 0 0.534-0.239 0.534-0.534v-0.712c0-0.295-0.239-0.534-0.534-0.534s-0.534 0.239-0.534 0.534v0.712c0 0.295 0.239 0.534 0.534 0.534z"></path>
      <path d="M25.609 24.637c0.295 0 0.534-0.239 0.534-0.534v-0.712c0-0.295-0.239-0.534-0.534-0.534s-0.534 0.239-0.534 0.534v0.712c0 0.295 0.239 0.534 0.534 0.534z"></path>
      <path d="M25.609 28.196c0.295 0 0.534-0.239 0.534-0.534v-0.712c0-0.295-0.239-0.534-0.534-0.534s-0.534 0.239-0.534 0.534v0.712c0 0.295 0.239 0.534 0.534 0.534z"></path>
      <path d="M16.178 8.445c0-0.295-0.239-0.534-0.534-0.534h-4.27c-0.295 0-0.534 0.239-0.534 0.534s0.239 0.534 0.534 0.534h4.27c0.295 0 0.534-0.239 0.534-0.534z"></path>
    </symbol>
    <symbol id="icon-sity-two" viewBox="0 0 32 32">
      <path fill="#fff" style="fill: var(--color1, #fff)" d="M20.267 20.8c0-0.294-0.239-0.533-0.533-0.533s-0.533 0.239-0.533 0.533v1.067c0 0.294 0.239 0.533 0.533 0.533s0.533-0.239 0.533-0.533v-1.067z"></path>
      <path fill="#fff" style="fill: var(--color1, #fff)" d="M19.733 26.667c-0.294 0-0.533 0.239-0.533 0.533v2.133c0 0.294 0.239 0.533 0.533 0.533s0.533-0.239 0.533-0.533v-2.133c0-0.294-0.239-0.533-0.533-0.533z"></path>
      <path fill="#fff" style="fill: var(--color1, #fff)" d="M22.4 14.4c0-0.294-0.239-0.533-0.533-0.533s-0.533 0.239-0.533 0.533v1.067c0 0.294 0.239 0.533 0.533 0.533s0.533-0.239 0.533-0.533v-1.067z"></path>
      <path fill="#fff" style="fill: var(--color1, #fff)" d="M20.267 17.6c0-0.294-0.239-0.533-0.533-0.533s-0.533 0.239-0.533 0.533v1.067c0 0.294 0.239 0.533 0.533 0.533s0.533-0.239 0.533-0.533v-1.067z"></path>
      <path fill="#fff" style="fill: var(--color1, #fff)" d="M20.267 24c0-0.294-0.239-0.533-0.533-0.533s-0.533 0.239-0.533 0.533v1.067c0 0.294 0.239 0.533 0.533 0.533s0.533-0.239 0.533-0.533v-1.067h0z"></path>
      <path fill="#fff" style="fill: var(--color1, #fff)" d="M22.4 17.6c0-0.294-0.239-0.533-0.533-0.533s-0.533 0.239-0.533 0.533v1.067c0 0.294 0.239 0.533 0.533 0.533s0.533-0.239 0.533-0.533v-1.067z"></path>
      <path fill="#fff" style="fill: var(--color1, #fff)" d="M18.133 14.4c0-0.294-0.239-0.533-0.533-0.533s-0.533 0.239-0.533 0.533v1.067c0 0.294 0.239 0.533 0.533 0.533s0.533-0.239 0.533-0.533v-1.067z"></path>
      <path fill="#fff" style="fill: var(--color1, #fff)" d="M20.267 14.4c0-0.294-0.239-0.533-0.533-0.533s-0.533 0.239-0.533 0.533v1.067c0 0.294 0.239 0.533 0.533 0.533s0.533-0.239 0.533-0.533v-1.067z"></path>
      <path fill="#fff" style="fill: var(--color1, #fff)" d="M22.4 9.067v-1.067c0-0.294-0.239-0.533-0.533-0.533s-0.533 0.239-0.533 0.533v1.067c0 0.294 0.239 0.533 0.533 0.533s0.533-0.239 0.533-0.533z"></path>
      <path fill="#fff" style="fill: var(--color1, #fff)" d="M18.133 17.6c0-0.294-0.239-0.533-0.533-0.533s-0.533 0.239-0.533 0.533v1.067c0 0.294 0.239 0.533 0.533 0.533s0.533-0.239 0.533-0.533v-1.067z"></path>
      <path fill="#fff" style="fill: var(--color1, #fff)" d="M24.533 8c0-0.294-0.239-0.533-0.533-0.533s-0.533 0.239-0.533 0.533v1.067c0 0.294 0.239 0.533 0.533 0.533s0.533-0.239 0.533-0.533v-1.067z"></path>
      <path fill="#fff" style="fill: var(--color1, #fff)" d="M17.6 20.267c-0.294 0-0.533 0.239-0.533 0.533v1.067c0 0.294 0.239 0.533 0.533 0.533s0.533-0.239 0.533-0.533v-1.067c0-0.294-0.239-0.533-0.533-0.533z"></path>
      <path fill="#fff" style="fill: var(--color1, #fff)" d="M26.667 24c0-0.294-0.239-0.533-0.533-0.533s-0.533 0.239-0.533 0.533v1.067c0 0.294 0.239 0.533 0.533 0.533s0.533-0.239 0.533-0.533v-1.067h0z"></path>
      <path fill="#fff" style="fill: var(--color1, #fff)" d="M26.133 26.667c-0.294 0-0.533 0.239-0.533 0.533v2.133c0 0.294 0.239 0.533 0.533 0.533s0.533-0.239 0.533-0.533v-2.133c0-0.294-0.239-0.533-0.533-0.533z"></path>
      <path fill="#fff" style="fill: var(--color1, #fff)" d="M28.267 20.267c-0.294 0-0.533 0.239-0.533 0.533v1.067c0 0.294 0.239 0.533 0.533 0.533s0.533-0.239 0.533-0.533v-1.067c0-0.294-0.239-0.533-0.533-0.533z"></path>
      <path fill="#fff" style="fill: var(--color1, #fff)" d="M19.733 9.6c0.294 0 0.533-0.239 0.533-0.533v-2.25l5.333-1.333v8.917c0 0.222 0.138 0.421 0.346 0.5l3.921 1.47v5.497c0 0.294 0.239 0.533 0.533 0.533s0.533-0.239 0.533-0.533v-5.867c0-0.222-0.138-0.421-0.346-0.5l-3.921-1.47v-10.297c0-0.294-0.239-0.533-0.533-0.533s-0.533 0.239-0.533 0.533v0.65l-5.996 1.499c-0.237 0.059-0.404 0.273-0.404 0.517v2.667c0 0.294 0.239 0.533 0.533 0.533z"></path>
      <path fill="#fff" style="fill: var(--color1, #fff)" d="M28.8 17.6c0-0.294-0.239-0.533-0.533-0.533s-0.533 0.239-0.533 0.533v1.067c0 0.294 0.239 0.533 0.533 0.533s0.533-0.239 0.533-0.533v-1.067z"></path>
      <path fill="#fff" style="fill: var(--color1, #fff)" d="M26.667 17.6c0-0.294-0.239-0.533-0.533-0.533s-0.533 0.239-0.533 0.533v1.067c0 0.294 0.239 0.533 0.533 0.533s0.533-0.239 0.533-0.533v-1.067z"></path>
      <path fill="#fff" style="fill: var(--color1, #fff)" d="M22.4 24c0-0.294-0.239-0.533-0.533-0.533s-0.533 0.239-0.533 0.533v1.067c0 0.294 0.239 0.533 0.533 0.533s0.533-0.239 0.533-0.533v-1.067z"></path>
      <path fill="#fff" style="fill: var(--color1, #fff)" d="M26.667 20.8c0-0.294-0.239-0.533-0.533-0.533s-0.533 0.239-0.533 0.533v1.067c0 0.294 0.239 0.533 0.533 0.533s0.533-0.239 0.533-0.533v-1.067z"></path>
      <path fill="#fff" style="fill: var(--color1, #fff)" d="M21.867 26.667c-0.294 0-0.533 0.239-0.533 0.533v2.133c0 0.294 0.239 0.533 0.533 0.533s0.533-0.239 0.533-0.533v-2.133c0-0.294-0.239-0.533-0.533-0.533z"></path>
      <path fill="#fff" style="fill: var(--color1, #fff)" d="M22.4 20.8c0-0.294-0.239-0.533-0.533-0.533s-0.533 0.239-0.533 0.533v1.067c0 0.294 0.239 0.533 0.533 0.533s0.533-0.239 0.533-0.533v-1.067z"></path>
      <path fill="#fff" style="fill: var(--color1, #fff)" d="M24 29.867c0.294 0 0.533-0.239 0.533-0.533v-17.067c0-0.245-0.167-0.458-0.404-0.517l-8.533-2.133c-0.158-0.040-0.329-0.004-0.458 0.097s-0.205 0.256-0.205 0.42v11.733c0 0.294 0.239 0.533 0.533 0.533s0.533-0.239 0.533-0.533v-11.050l7.467 1.867v16.65c0 0.294 0.239 0.533 0.533 0.533z"></path>
      <path fill="#fff" style="fill: var(--color1, #fff)" d="M11.733 11.2c0-0.294-0.239-0.533-0.533-0.533s-0.533 0.239-0.533 0.533v1.067c0 0.294 0.239 0.533 0.533 0.533s0.533-0.239 0.533-0.533v-1.067z"></path>
      <path fill="#fff" style="fill: var(--color1, #fff)" d="M11.733 8c0-0.294-0.239-0.533-0.533-0.533s-0.533 0.239-0.533 0.533v1.067c0 0.294 0.239 0.533 0.533 0.533s0.533-0.239 0.533-0.533v-1.067z"></path>
      <path fill="#fff" style="fill: var(--color1, #fff)" d="M7.467 24c0-0.294-0.239-0.533-0.533-0.533s-0.533 0.239-0.533 0.533v1.067c0 0.294 0.239 0.533 0.533 0.533s0.533-0.239 0.533-0.533v-1.067h0z"></path>
      <path fill="#fff" style="fill: var(--color1, #fff)" d="M2.667 19.2c0.294 0 0.533-0.239 0.533-0.533v-2.667h5.333v13.333c0 0.294 0.239 0.533 0.533 0.533s0.533-0.239 0.533-0.533v-13.867c0-0.294-0.239-0.533-0.533-0.533h-6.4c-0.294 0-0.533 0.239-0.533 0.533v3.2c0 0.294 0.239 0.533 0.533 0.533z"></path>
      <path fill="#fff" style="fill: var(--color1, #fff)" d="M8.533 11.2v1.067c0 0.294 0.239 0.533 0.533 0.533s0.533-0.239 0.533-0.533v-1.067c0-0.294-0.239-0.533-0.533-0.533s-0.533 0.239-0.533 0.533z"></path>
      <path fill="#fff" style="fill: var(--color1, #fff)" d="M11.733 4.8c0-0.294-0.239-0.533-0.533-0.533s-0.533 0.239-0.533 0.533v1.067c0 0.294 0.239 0.533 0.533 0.533s0.533-0.239 0.533-0.533v-1.067z"></path>
      <path fill="#fff" style="fill: var(--color1, #fff)" d="M6.933 26.667c-0.294 0-0.533 0.239-0.533 0.533v2.133c0 0.294 0.239 0.533 0.533 0.533s0.533-0.239 0.533-0.533v-2.133c0-0.294-0.239-0.533-0.533-0.533z"></path>
      <path fill="#fff" style="fill: var(--color1, #fff)" d="M31.467 30.933h-1.067v-3.276c0.917-0.238 1.6-1.067 1.6-2.058 0-1.177-0.957-2.133-2.133-2.133s-2.133 0.957-2.133 2.133c0 0.991 0.683 1.819 1.6 2.058v3.276h-13.333v-2.187c1.215-0.248 2.133-1.325 2.133-2.613 0-1.47-1.196-2.667-2.667-2.667s-2.667 1.196-2.667 2.667c0 1.288 0.918 2.365 2.133 2.613v2.187h-11.733v-5.387c1.215-0.248 2.133-1.325 2.133-2.613 0-1.47-1.196-2.667-2.667-2.667s-2.667 1.196-2.667 2.667c0 1.288 0.918 2.365 2.133 2.613v5.387h-1.6c-0.294 0-0.533 0.239-0.533 0.533s0.239 0.533 0.533 0.533h30.933c0.294 0 0.533-0.239 0.533-0.533s-0.239-0.534-0.533-0.534zM1.067 22.933c0-0.882 0.718-1.6 1.6-1.6s1.6 0.718 1.6 1.6c0 0.882-0.718 1.6-1.6 1.6s-1.6-0.718-1.6-1.6zM13.867 26.133c0-0.882 0.718-1.6 1.6-1.6s1.6 0.718 1.6 1.6c0 0.882-0.718 1.6-1.6 1.6s-1.6-0.718-1.6-1.6zM28.8 25.6c0-0.588 0.478-1.067 1.067-1.067s1.067 0.478 1.067 1.067-0.478 1.067-1.067 1.067c-0.588 0-1.067-0.478-1.067-1.067z"></path>
      <path fill="#fff" style="fill: var(--color1, #fff)" d="M4.267 27.2v2.133c0 0.294 0.239 0.533 0.533 0.533s0.533-0.239 0.533-0.533v-2.133c0-0.294-0.239-0.533-0.533-0.533s-0.533 0.239-0.533 0.533z"></path>
      <path fill="#fff" style="fill: var(--color1, #fff)" d="M7.467 17.6c0-0.294-0.239-0.533-0.533-0.533s-0.533 0.239-0.533 0.533v1.067c0 0.294 0.239 0.533 0.533 0.533s0.533-0.239 0.533-0.533v-1.067z"></path>
      <path fill="#fff" style="fill: var(--color1, #fff)" d="M7.467 20.8c0-0.294-0.239-0.533-0.533-0.533s-0.533 0.239-0.533 0.533v1.067c0 0.294 0.239 0.533 0.533 0.533s0.533-0.239 0.533-0.533v-1.067z"></path>
      <path fill="#fff" style="fill: var(--color1, #fff)" d="M4.267 17.6v1.067c0 0.294 0.239 0.533 0.533 0.533s0.533-0.239 0.533-0.533v-1.067c0-0.294-0.239-0.533-0.533-0.533s-0.533 0.239-0.533 0.533z"></path>
      <path fill="#fff" style="fill: var(--color1, #fff)" d="M11.733 20.8c0-0.294-0.239-0.533-0.533-0.533s-0.533 0.239-0.533 0.533v1.067c0 0.294 0.239 0.533 0.533 0.533s0.533-0.239 0.533-0.533v-1.067z"></path>
      <path fill="#fff" style="fill: var(--color1, #fff)" d="M13.867 14.4c0-0.294-0.239-0.533-0.533-0.533s-0.533 0.239-0.533 0.533v1.067c0 0.294 0.239 0.533 0.533 0.533s0.533-0.239 0.533-0.533v-1.067z"></path>
      <path fill="#fff" style="fill: var(--color1, #fff)" d="M13.867 11.2c0-0.294-0.239-0.533-0.533-0.533s-0.533 0.239-0.533 0.533v1.067c0 0.294 0.239 0.533 0.533 0.533s0.533-0.239 0.533-0.533v-1.067z"></path>
      <path fill="#fff" style="fill: var(--color1, #fff)" d="M13.867 17.6c0-0.294-0.239-0.533-0.533-0.533s-0.533 0.239-0.533 0.533v1.067c0 0.294 0.239 0.533 0.533 0.533s0.533-0.239 0.533-0.533v-1.067z"></path>
      <path fill="#fff" style="fill: var(--color1, #fff)" d="M13.333 20.267c-0.294 0-0.533 0.239-0.533 0.533v1.067c0 0.294 0.239 0.533 0.533 0.533s0.533-0.239 0.533-0.533v-1.067c0-0.294-0.239-0.533-0.533-0.533z"></path>
      <path fill="#fff" style="fill: var(--color1, #fff)" d="M13.867 8c0-0.294-0.239-0.533-0.533-0.533s-0.533 0.239-0.533 0.533v1.067c0 0.294 0.239 0.533 0.533 0.533s0.533-0.239 0.533-0.533v-1.067z"></path>
      <path fill="#fff" style="fill: var(--color1, #fff)" d="M11.733 24c0-0.294-0.239-0.533-0.533-0.533s-0.533 0.239-0.533 0.533v1.067c0 0.294 0.239 0.533 0.533 0.533s0.533-0.239 0.533-0.533v-1.067z"></path>
      <path fill="#fff" style="fill: var(--color1, #fff)" d="M6.933 13.867c0.294 0 0.533-0.239 0.533-0.533v-3.937l1.838-0.919c0.181-0.091 0.295-0.275 0.295-0.477v-4.47l2.667-1.333 2.667 1.333v4.47c0 0.294 0.239 0.533 0.533 0.533s0.533-0.239 0.533-0.533v-4.8c0-0.202-0.114-0.387-0.295-0.477l-2.905-1.452v-0.737c0-0.294-0.239-0.533-0.533-0.533s-0.533 0.239-0.533 0.533v0.737l-2.905 1.452c-0.181 0.091-0.295 0.275-0.295 0.477v4.47l-1.838 0.919c-0.181 0.091-0.295 0.275-0.295 0.477v4.267c-0 0.295 0.239 0.534 0.533 0.534z"></path>
      <path fill="#fff" style="fill: var(--color1, #fff)" d="M11.733 17.6c0-0.294-0.239-0.533-0.533-0.533s-0.533 0.239-0.533 0.533v1.067c0 0.294 0.239 0.533 0.533 0.533s0.533-0.239 0.533-0.533v-1.067z"></path>
      <path fill="#fff" style="fill: var(--color1, #fff)" d="M11.2 26.667c-0.294 0-0.533 0.239-0.533 0.533v2.133c0 0.294 0.239 0.533 0.533 0.533s0.533-0.239 0.533-0.533v-2.133c0-0.294-0.239-0.533-0.533-0.533z"></path>
      <path fill="#fff" style="fill: var(--color1, #fff)" d="M13.867 4.8c0-0.294-0.239-0.533-0.533-0.533s-0.533 0.239-0.533 0.533v1.067c0 0.294 0.239 0.533 0.533 0.533s0.533-0.239 0.533-0.533v-1.067z"></path>
      <path fill="#fff" style="fill: var(--color1, #fff)" d="M11.733 14.4c0-0.294-0.239-0.533-0.533-0.533s-0.533 0.239-0.533 0.533v1.067c0 0.294 0.239 0.533 0.533 0.533s0.533-0.239 0.533-0.533v-1.067z"></path>
    </symbol>
  </defs>
</svg>
